<?xml version="1.0" standalone="no"?>
<!DOCTYPE svg PUBLIC "-//W3C//DTD SVG 20010904//EN"
 "http://www.w3.org/TR/2001/REC-SVG-20010904/DTD/svg10.dtd">
<svg version="1.0" xmlns="http://www.w3.org/2000/svg"
 width="503.000000pt" height="900.000000pt" viewBox="0 0 503.000000 900.000000"
 preserveAspectRatio="xMidYMid meet">
<metadata>
Created by potrace 1.16, written by Peter Selinger 2001-2019
</metadata>
<g transform="translate(0.000000,900.000000) scale(0.100000,-0.100000)"
fill="#000000" stroke="none">
<path d="M4071 8213 c-6 -434 -19 -1233 -27 -1778 -8 -544 -19 -1179 -24
-1410 -5 -231 -9 -551 -9 -711 -1 -262 1 -293 15 -298 9 -4 14 -9 11 -12 -3
-4 -19 3 -35 14 -15 12 -35 22 -42 24 -8 2 -21 9 -28 16 -8 7 -18 10 -23 7 -5
-4 -9 -2 -9 3 0 10 -78 46 -97 45 -7 0 -10 3 -7 8 3 5 0 9 -7 9 -7 0 -67 25
-133 56 -143 67 -169 77 -162 65 3 -5 -1 -12 -10 -15 -22 -9 -24 -8 -24 12 0
14 -3 13 -18 -6 l-18 -23 -2 23 c-1 13 -3 32 -3 44 -1 13 -13 25 -33 34 -17 7
-40 21 -52 31 -33 31 -112 49 -209 48 -57 0 -83 -3 -70 -9 11 -4 53 -20 93
-35 63 -23 72 -30 72 -51 0 -18 -4 -23 -12 -18 -9 5 -9 2 1 -9 10 -13 10 -17
1 -17 -7 0 -10 -7 -6 -17 4 -12 -1 -9 -15 7 -21 24 -21 24 -15 3 5 -14 3 -23
-3 -23 -6 0 -11 6 -11 13 0 8 -4 7 -10 -3 -16 -25 -11 -32 18 -26 22 5 24 4 9
-4 -9 -6 -15 -15 -12 -20 3 -5 1 -11 -4 -14 -10 -7 -36 15 -44 36 -2 7 -8 10
-12 6 -4 -4 0 -15 9 -24 10 -9 14 -24 11 -33 -10 -24 -17 -54 -18 -74 -1 -17
-2 -17 -14 -1 -15 21 -17 38 -4 29 5 -3 13 0 17 6 4 8 3 9 -4 5 -7 -4 -12 -3
-12 2 0 6 -7 13 -16 16 -14 5 -15 4 -5 -8 10 -12 8 -19 -8 -35 -12 -12 -21
-25 -21 -31 0 -5 -5 -10 -12 -10 -6 0 -9 -2 -7 -5 7 -7 49 6 45 14 -3 4 -1 13
5 21 7 13 9 12 9 -2 0 -10 0 -21 1 -25 0 -4 -14 -11 -30 -16 -26 -6 -31 -12
-31 -38 0 -25 -3 -30 -16 -25 -14 5 -15 4 -4 -9 9 -11 9 -15 1 -15 -7 0 -10
-4 -6 -9 3 -5 -5 -13 -17 -17 -13 -4 -27 -12 -31 -18 -6 -7 -7 -5 -4 6 3 9 -1
19 -9 22 -8 3 -14 12 -14 20 0 8 -4 18 -10 21 -7 4 -7 -2 -1 -19 13 -33 -9
-43 -76 -36 -15 1 -14 3 5 10 12 5 22 12 22 16 0 3 -7 3 -15 0 -9 -3 -18 1
-21 9 -4 8 -10 15 -16 15 -5 0 -6 -6 -2 -12 5 -8 0 -7 -11 2 -17 14 -17 13
-12 -10 4 -14 4 -19 1 -12 -3 6 -11 9 -17 5 -6 -4 -8 0 -4 10 3 9 3 18 -1 20
-4 2 -2 2 5 1 17 -4 27 16 15 28 -8 8 -20 2 -41 -20 -17 -17 -31 -26 -31 -20
0 7 -5 6 -14 -1 -10 -8 -16 -9 -21 -1 -4 6 -1 9 7 8 7 -2 12 2 11 8 -1 7 5 10
16 7 9 -2 24 4 32 13 12 16 12 17 -4 11 -12 -5 -16 -3 -11 5 5 8 2 9 -10 5
-10 -4 -27 0 -39 8 -12 8 -16 15 -10 15 7 0 15 -4 18 -10 11 -18 23 -10 18 11
-5 16 -2 20 8 17 8 -3 13 -11 11 -17 -1 -7 2 -10 8 -6 10 6 -1 39 -17 47 -5 3
-3 3 4 2 6 -2 17 5 25 14 9 11 10 14 1 8 -7 -4 -13 -2 -13 3 0 6 7 12 15 12 8
1 20 3 25 4 6 1 18 4 28 5 10 1 6 5 -11 9 l-28 6 20 22 c20 22 20 22 1 20 -13
-1 -18 -6 -15 -15 2 -7 -3 -16 -13 -19 -9 -4 -20 -11 -24 -17 -4 -6 -10 -3
-14 7 -4 11 -1 23 6 30 10 9 11 9 6 -3 -4 -8 1 -5 11 8 10 13 28 24 40 25 12
0 20 4 18 8 -3 3 -17 4 -31 1 -21 -4 -25 -2 -20 9 4 8 -1 3 -12 -10 l-20 -25
5 27 c3 17 1 27 -6 27 -7 0 -9 -5 -5 -12 4 -6 3 -8 -4 -5 -15 10 -3 45 21 62
17 12 18 17 8 29 -7 8 -9 21 -5 28 4 7 -2 5 -13 -5 -11 -9 -22 -15 -25 -12 -3
3 -4 -8 -3 -25 1 -24 -1 -28 -12 -18 -11 8 -11 13 -2 19 9 5 6 15 -9 36 -16
22 -17 30 -7 30 8 0 13 -5 12 -10 -1 -5 3 -11 10 -14 14 -5 10 32 -6 51 -6 8
-6 17 1 26 8 13 9 12 5 -2 -3 -9 3 -24 14 -34 10 -9 19 -13 19 -8 0 5 5 2 10
-6 8 -13 11 -13 22 -1 10 10 10 12 1 7 -7 -4 -13 -3 -13 1 0 5 6 15 13 22 6 8
0 6 -15 -4 -26 -16 -28 -16 -34 0 -5 11 2 25 20 42 15 14 24 28 21 31 -4 4
-11 -1 -16 -11 -6 -9 -14 -15 -20 -12 -5 4 -9 1 -9 -4 0 -6 -4 -10 -8 -8 -11
3 -62 -50 -55 -57 4 -3 -1 -6 -10 -6 -23 0 -31 -18 -15 -38 11 -15 11 -15 -2
-6 -9 7 -23 8 -35 3 -14 -5 -15 -8 -5 -9 8 -1 2 -7 -15 -13 -29 -11 -46 -37
-25 -37 6 0 10 -5 10 -11 0 -8 -5 -8 -15 1 -13 11 -19 8 -17 -11 1 -3 -5 -6
-13 -6 -8 0 -12 4 -9 8 2 4 0 10 -6 14 -5 3 -10 2 -10 -4 0 -5 -3 -16 -6 -24
-6 -17 33 -31 40 -13 2 6 5 0 5 -13 1 -13 -2 -21 -6 -18 -3 4 -15 0 -24 -9
-15 -14 -19 -14 -23 -3 -10 31 -13 68 -5 63 5 -3 9 0 9 5 0 6 -11 10 -25 9
-14 -1 -25 -7 -25 -13 0 -7 -3 -7 -8 0 -4 6 -18 16 -32 23 l-25 12 25 -5 c21
-5 22 -4 7 5 -9 6 -15 15 -12 20 3 5 0 12 -6 16 -7 4 -9 3 -6 -3 4 -6 0 -14
-9 -17 -24 -9 -29 -7 -16 6 8 8 8 17 0 31 -7 15 -7 22 3 28 11 7 11 9 1 9 -7
0 -11 4 -8 8 2 4 1 14 -5 22 -7 13 -9 13 -9 0 0 -8 -8 -20 -18 -26 -14 -9 -18
-8 -18 6 0 10 6 16 13 13 19 -8 16 18 -4 33 -17 13 -17 14 0 8 14 -5 16 -2 13
17 -2 13 1 31 8 39 6 8 1 7 -11 -3 -21 -19 -22 -19 -19 10 1 15 5 34 10 41 8
14 -17 27 -37 19 -8 -3 -20 -1 -28 4 -10 6 -8 9 11 9 35 0 70 11 70 21 0 5
-11 4 -25 -1 -21 -8 -25 -7 -25 10 0 13 5 18 15 14 11 -5 13 -2 9 10 -4 12 -2
15 9 10 8 -3 18 -1 22 5 3 6 1 11 -5 11 -6 0 -9 4 -5 9 3 5 1 12 -5 16 -5 3
-10 -1 -10 -9 0 -10 -7 -13 -22 -10 -44 10 -118 11 -118 2 0 -12 -124 -9 -167
4 -18 5 -33 13 -33 18 0 5 -9 12 -20 15 -11 3 -20 15 -20 26 0 10 -6 19 -13
19 -8 0 -14 14 -15 36 l-3 36 31 -22 c24 -17 29 -18 23 -4 -5 14 -3 15 16 4
13 -6 25 -9 29 -6 3 3 1 6 -5 6 -8 0 -8 10 0 35 14 47 44 56 73 21 23 -25 23
-25 26 -3 3 19 9 22 53 22 l50 0 8 -52 c5 -29 12 -53 17 -53 5 0 10 28 12 63
2 47 7 62 18 63 34 2 40 5 37 17 -1 6 4 11 11 9 8 -1 11 2 7 8 -9 14 22 43 36
34 6 -3 15 -1 19 6 5 8 9 7 13 -5 4 -9 3 -13 -3 -10 -6 3 -10 1 -10 -4 0 -17
25 -13 48 7 14 11 22 33 25 65 5 44 -2 65 -17 50 -12 -12 -46 -10 -46 4 0 7 5
13 10 13 6 0 10 6 10 13 0 13 44 16 57 4 3 -4 11 -7 17 -7 6 0 5 4 -3 9 -18
11 -7 41 15 41 13 0 14 -3 4 -15 -10 -12 -9 -15 5 -15 10 0 16 3 13 6 -4 3 -2
19 2 35 5 17 6 37 3 45 -8 20 -25 6 -18 -16 7 -23 -13 -37 -21 -16 -3 9 -11
13 -17 9 -6 -3 -7 -1 -3 6 4 6 12 9 17 6 5 -4 9 -2 9 4 0 5 -4 11 -10 13 -5 2
-1 14 10 28 15 20 20 22 34 11 11 -9 16 -10 16 -2 0 6 4 11 10 11 14 0 6 -40
-11 -51 -9 -5 -10 -9 -2 -9 6 0 11 -9 10 -19 0 -11 -5 -17 -10 -14 -5 3 -3 -4
4 -15 7 -11 21 -19 31 -17 10 2 18 0 18 -6 0 -5 -5 -9 -12 -9 -6 0 -8 -3 -4
-7 8 -9 36 24 36 41 0 6 -5 4 -10 -4 -6 -9 -10 -11 -10 -3 0 7 -6 10 -14 7
-10 -4 -13 4 -12 28 1 18 5 32 9 31 4 -2 14 -3 23 -3 8 0 12 -4 9 -10 -3 -5
-3 -10 2 -11 4 0 19 -2 32 -5 13 -2 29 0 35 5 17 15 49 -14 50 -46 1 -15 5
-34 9 -40 5 -7 5 -13 0 -13 -4 0 -3 -4 4 -8 8 -5 10 -17 4 -37 -5 -23 -22 -39
-69 -65 -34 -19 -62 -40 -62 -46 0 -17 -30 -39 -38 -28 -8 10 -42 15 -42 5 1
-28 51 -39 68 -15 9 12 32 16 32 5 0 -11 49 -11 56 0 12 19 26 8 20 -16 -4
-14 -2 -25 3 -25 5 0 11 -9 14 -20 4 -16 10 -18 29 -11 35 12 89 131 96 209 5
68 24 84 43 35 10 -26 6 -48 -22 -152 -7 -24 18 -23 26 1 4 13 8 25 9 28 1 3
7 15 14 27 20 36 15 153 -7 153 -3 0 -12 14 -19 32 -9 25 -9 35 1 47 8 10 8
12 1 8 -7 -4 -14 0 -18 8 -3 8 0 17 6 21 7 4 7 8 0 13 -6 4 -13 18 -16 33 -2
14 -10 36 -16 48 -7 12 -10 30 -7 40 3 10 -1 21 -9 24 -9 3 -11 -1 -8 -12 3
-9 -1 -6 -9 8 -9 14 -18 24 -21 23 -3 -2 -8 -2 -11 -2 -32 8 -75 28 -75 35 0
3 7 3 16 0 8 -3 13 -2 10 3 -3 5 -19 11 -36 14 -19 4 -30 13 -31 24 0 16 -2
15 -9 -2 -5 -11 -9 -14 -9 -7 -1 7 -5 10 -11 7 -5 -3 -20 0 -32 7 -13 7 -26
12 -30 13 -5 0 -8 3 -8 8 0 4 0 12 0 17 0 7 6 7 19 0 13 -7 21 -7 24 0 3 6 4
5 3 -2 -2 -7 -9 -12 -15 -10 -7 1 -10 -2 -6 -8 3 -6 12 -7 18 -3 7 4 20 6 29
5 13 -2 16 1 11 14 -4 12 -3 15 5 10 7 -4 12 -2 12 6 0 9 3 9 10 -2 6 -9 10
-10 10 -3 0 7 10 10 26 7 14 -3 23 -1 20 4 -2 4 4 9 15 9 11 1 17 -1 15 -6 -3
-4 11 -5 30 -3 19 2 34 8 34 13 0 5 9 9 20 9 11 0 20 5 20 11 0 5 -4 8 -9 4
-5 -3 -12 -1 -15 4 -3 5 11 7 32 4 20 -3 33 -1 29 3 -9 9 -26 14 -77 21 -19 2
-42 7 -50 10 -8 4 -18 5 -22 5 -5 -1 -8 2 -8 7 0 5 17 16 38 25 l37 16 -35 -6
c-19 -3 -44 -8 -55 -10 -11 -3 3 7 30 22 28 15 52 31 53 35 5 12 59 11 82 -1
16 -8 18 -8 14 5 -6 15 -17 19 -41 16 -7 -1 -13 2 -13 7 0 5 -31 14 -69 21
-56 10 -69 16 -64 28 8 19 67 11 126 -18 l42 -20 -25 20 c-14 11 -50 25 -80
32 -30 6 -66 13 -80 16 l-25 5 24 19 c19 16 26 17 40 7 14 -11 14 -11 3 3 -7
10 -21 15 -32 12 -15 -4 -20 0 -20 16 0 14 4 20 12 15 6 -4 8 -3 4 4 -3 5 -2
12 4 14 6 2 1 9 -10 15 -16 11 -18 10 -13 -4 5 -11 3 -14 -6 -9 -8 5 -10 18
-7 35 5 21 4 23 -4 9 -6 -9 -16 -15 -24 -12 -15 6 -17 34 -2 34 6 0 4 5 -4 11
-12 8 -11 9 6 4 14 -3 28 1 38 10 9 9 16 12 16 6 0 -5 -7 -14 -16 -19 -15 -8
-15 -10 0 -15 12 -5 15 -3 10 5 -5 7 -2 9 9 5 11 -4 14 -2 10 9 -3 9 1 14 13
14 11 0 25 4 33 9 12 8 11 12 -4 28 -18 17 -18 17 -13 -4 5 -18 2 -23 -13 -23
-23 0 -23 4 -2 38 10 17 11 22 3 15 -21 -19 -35 -16 -19 4 13 15 12 15 -8 5
-30 -16 -35 -15 -24 6 8 15 3 17 -47 17 -37 0 -61 -5 -68 -14 -9 -11 -12 -12
-19 -1 -5 9 -4 11 3 6 8 -5 12 1 12 16 0 16 -3 19 -9 10 -4 -7 -20 -14 -34
-16 -15 -1 -30 -6 -34 -9 -3 -4 -11 -7 -17 -7 -5 0 -1 6 10 14 10 8 16 18 12
22 -4 4 -13 2 -20 -4 -10 -7 -19 -5 -37 9 -13 10 -17 19 -10 19 7 0 9 3 6 6
-4 4 -13 2 -20 -4 -8 -7 -17 -9 -20 -5 -4 3 -7 -5 -7 -18 -1 -23 -1 -23 -15
-5 -8 11 -18 17 -21 13 -4 -4 -1 -15 7 -24 12 -15 10 -15 -9 1 -27 23 -14 46
26 46 25 0 25 1 6 15 -10 8 -14 15 -9 15 48 6 63 5 55 -5 -5 -6 1 -15 16 -22
22 -10 24 -10 14 3 -7 8 -9 14 -5 14 4 0 2 7 -5 15 -7 8 -17 12 -24 9 -6 -3 0
4 14 16 22 19 22 20 3 11 -18 -9 -22 -8 -26 7 -3 11 -5 8 -6 -9 -1 -22 -5 -26
-25 -24 -19 2 -24 -1 -21 -15 4 -20 -21 -35 -30 -20 -4 6 -14 6 -28 -1 -12 -7
-19 -8 -15 -4 4 4 -2 23 -13 42 -11 19 -17 44 -14 56 2 12 2 16 -1 10 -7 -16
-44 -17 -44 -2 0 6 -9 8 -21 4 -15 -5 -19 -4 -15 4 4 6 1 11 -8 11 -8 0 -17 4
-21 9 -5 10 44 -1 64 -13 12 -8 45 5 34 13 -4 3 -14 16 -21 29 -12 21 -11 22
8 10 11 -7 20 -15 20 -18 0 -4 7 -15 15 -26 15 -18 15 -18 9 9 -4 19 -2 27 8
27 7 0 14 9 15 19 1 15 -3 18 -20 14 -42 -9 -87 -9 -87 2 0 6 -3 5 -8 -2 -5
-8 -12 -8 -26 2 -17 13 -14 14 25 10 24 -2 38 -2 31 1 -6 3 -10 10 -7 14 3 5
0 12 -6 16 -7 4 -9 3 -6 -3 4 -6 0 -13 -8 -17 -10 -3 -15 1 -15 13 0 11 6 22
13 24 7 3 5 6 -5 6 -12 1 -18 -6 -18 -19 0 -11 -4 -20 -9 -20 -6 0 -8 9 -6 20
2 11 0 18 -6 15 -5 -4 -9 -1 -9 5 0 6 -5 8 -10 5 -6 -4 -8 -10 -5 -15 3 -5
-14 -9 -37 -9 -24 1 -54 -4 -68 -9 -22 -9 -20 -10 20 -10 88 -1 91 -2 74 -20
-10 -9 -18 -11 -22 -5 -8 12 -43 13 -36 1 3 -4 0 -8 -5 -8 -6 0 -11 -4 -11
-10 0 -5 7 -7 15 -4 11 5 13 2 9 -10 -7 -18 -20 -21 -29 -6 -3 6 -14 10 -23
10 -9 0 -2 -8 17 -17 25 -13 36 -14 39 -5 4 14 32 -9 32 -27 0 -15 -17 -14
-23 2 -4 10 -6 10 -6 0 -1 -7 -6 -13 -12 -13 -5 0 -7 5 -3 12 4 6 -4 3 -18 -8
-20 -15 -23 -21 -12 -27 7 -4 22 -4 31 2 12 6 22 5 30 -4 10 -10 9 -14 -3 -19
-22 -9 -26 -7 -18 6 5 7 3 8 -5 4 -9 -6 -8 -13 5 -27 16 -18 11 -25 -18 -20
-5 0 -8 -4 -8 -9 0 -6 -5 -10 -11 -10 -5 0 -7 5 -3 12 4 7 3 8 -5 4 -6 -4 -8
-12 -5 -18 5 -7 -2 -9 -20 -6 -14 3 -29 1 -33 -5 -3 -6 -1 -7 5 -3 7 4 12 2
12 -4 0 -7 6 -10 14 -7 21 8 27 -3 11 -19 -9 -10 -23 -12 -42 -8 -26 7 -27 6
-13 -10 12 -16 12 -19 -3 -28 -10 -5 -15 -13 -13 -17 3 -4 -5 -8 -16 -8 -31
-3 -44 -19 -28 -38 12 -14 1 -22 -13 -9 -3 4 -28 8 -54 10 -26 1 -52 3 -58 3
-23 2 -114 -7 -133 -13 -11 -4 -23 -2 -27 4 -3 5 -17 10 -30 10 -13 0 -27 5
-30 10 -3 6 -11 10 -16 10 -6 0 -8 -4 -4 -9 3 -5 1 -12 -5 -16 -5 -3 -10 -1
-10 4 0 20 -15 12 -32 -16 -10 -16 -31 -42 -47 -60 -19 -19 -32 -44 -33 -63
-1 -17 -6 -34 -11 -37 -5 -3 -3 -9 4 -13 10 -7 10 -12 0 -23 -9 -12 -9 -17 0
-23 8 -5 9 -3 4 6 -5 8 -4 11 2 7 6 -4 8 -25 5 -49 -3 -24 -6 -53 -6 -65 -1
-13 -5 -23 -10 -23 -4 0 -6 -9 -3 -20 3 -11 2 -20 -2 -20 -4 0 -8 -12 -8 -27
-1 -54 -10 -120 -17 -132 -4 -6 -2 -18 4 -26 7 -9 8 -15 2 -15 -13 0 -22 -37
-15 -58 6 -13 8 -13 14 4 11 27 11 -2 0 -47 -14 -60 15 -85 53 -46 10 9 22 17
28 17 6 0 1 8 -10 19 -26 22 -28 31 -5 31 15 0 15 2 -2 14 -18 13 -18 14 4 21
14 4 20 12 17 21 -3 8 1 14 10 14 8 0 12 5 9 10 -3 6 1 10 9 10 8 0 17 -4 20
-9 7 -10 25 -9 44 2 6 5 12 5 12 1 0 -4 9 1 20 11 11 10 20 13 20 7 0 -11 25
-11 36 0 3 4 12 4 20 1 8 -3 14 -1 14 5 0 5 15 9 34 7 26 -1 33 2 29 13 -5 12
-2 12 15 3 26 -14 35 -14 27 -1 -3 6 1 7 9 4 10 -4 16 -1 16 9 0 11 7 13 22 9
21 -5 22 -4 9 11 -12 15 -10 17 16 17 28 0 63 28 63 51 0 8 4 8 15 -1 8 -6 19
-9 24 -5 7 3 8 0 5 -9 -3 -9 -12 -12 -21 -9 -12 5 -14 3 -8 -6 4 -8 2 -17 -6
-22 -12 -7 -11 -9 1 -9 25 -1 -11 -20 -37 -20 -13 0 -23 -4 -23 -9 0 -5 14 -8
30 -6 21 3 30 0 30 -10 0 -14 -38 -41 -53 -37 -4 1 -18 -3 -30 -10 -12 -7 -26
-11 -30 -10 -5 1 -6 -1 -3 -6 3 -5 -6 -15 -19 -22 -14 -7 -25 -19 -25 -27 0
-7 -9 -13 -20 -13 -11 0 -20 -5 -20 -11 0 -5 -5 -7 -10 -4 -5 3 -10 -1 -10
-10 0 -9 -6 -15 -12 -14 -25 3 -38 -1 -38 -12 0 -8 5 -8 15 1 9 8 15 8 15 2 0
-6 -10 -14 -21 -17 -17 -6 -19 -9 -8 -16 8 -5 9 -9 3 -9 -6 0 -28 -13 -49 -30
-39 -31 -66 -41 -43 -16 7 8 17 11 22 8 5 -3 6 0 2 7 -8 12 -28 2 -51 -26 -11
-15 -49 -18 -82 -8 -18 6 -23 3 -23 -11 0 -11 -8 -28 -16 -39 -15 -19 -15 -19
-9 6 4 15 2 30 -3 33 -7 4 -9 -14 -6 -51 2 -32 6 -81 8 -109 10 -128 123 -327
256 -451 14 -13 20 -23 13 -23 -6 0 -14 6 -17 13 -3 6 -4 1 -2 -13 3 -14 8
-60 11 -102 4 -43 10 -78 14 -78 3 0 6 -11 6 -24 0 -13 -3 -22 -6 -20 -4 2
-17 -4 -30 -14 -13 -10 -53 -32 -87 -48 -235 -108 -513 -256 -802 -429 -493
-294 -543 -349 -656 -705 l-34 -105 0 -1522 0 -1523 2008 0 c1548 0 2011 3
2020 12 9 9 12 9 12 0 0 -9 104 -12 436 -12 l437 0 -6 59 -6 59 52 5 c29 3 58
0 65 -5 9 -8 12 33 12 199 l0 209 -65 49 c-36 27 -65 53 -65 58 0 4 4 6 8 3 5
-3 19 1 33 8 13 7 31 10 38 8 8 -3 11 0 8 5 -4 6 4 8 18 5 22 -4 25 -1 25 28
0 34 -6 41 -102 112 -53 39 -78 75 -44 62 8 -3 17 0 21 5 3 6 11 9 16 6 5 -4
9 -2 9 3 0 23 34 21 66 -3 l34 -26 0 39 c0 27 -7 45 -23 60 -13 12 -27 19 -32
15 -4 -5 -5 -3 -2 4 4 6 -11 25 -35 44 -24 18 -59 47 -79 65 l-36 32 37 11
c61 18 89 14 129 -21 l36 -32 3 209 c1 115 0 215 -2 222 -4 9 -13 9 -38 2 -18
-6 -55 -17 -83 -24 -27 -8 -71 -21 -97 -29 l-46 -14 -13 85 c-14 97 -14 97 62
106 27 3 57 11 67 17 14 10 13 11 -8 6 -42 -10 -140 -19 -140 -13 0 3 -7 40
-15 83 -8 43 -14 79 -12 80 1 2 49 10 107 18 103 16 163 32 188 50 20 14 6 19
-19 6 -18 -10 -235 -49 -273 -50 -15 0 3 91 25 127 28 44 49 29 49 -34 l0 -45
33 24 c29 22 35 23 67 12 19 -7 36 -11 37 -10 1 1 -2 19 -8 40 -9 31 -7 43 10
72 l20 34 -39 0 c-30 0 -43 6 -59 27 -17 23 -20 25 -21 10 0 -23 -30 -75 -46
-81 -15 -6 5 54 23 69 16 14 84 175 78 185 -3 5 -1 10 4 12 6 1 12 14 15 28 2
14 7 32 10 40 19 53 35 190 31 279 -2 66 -8 89 -24 110 -11 14 -35 48 -53 74
-27 41 -33 45 -39 30 -4 -10 -8 -33 -8 -50 -1 -18 -5 -33 -9 -33 -8 0 -5 63 5
90 9 26 18 151 17 250 -1 155 -38 321 -79 360 -13 13 -22 27 -19 31 3 5 1 9
-3 9 -5 0 -17 18 -27 40 -10 22 -21 38 -24 36 -4 -2 -16 2 -27 10 -10 8 -14
14 -9 14 6 0 11 7 11 15 0 8 -4 12 -8 10 -4 -3 -9 2 -13 10 -3 8 -12 15 -19
15 -8 0 -30 18 -50 40 -19 22 -38 40 -42 40 -3 0 -15 8 -26 19 -18 16 -18 19
-4 25 9 3 14 2 12 -2 -3 -4 1 -13 9 -20 10 -9 14 -10 14 -1 0 7 8 5 20 -6 11
-10 22 -16 25 -13 8 8 -74 60 -84 53 -5 -2 -12 2 -15 10 -4 12 -10 14 -25 5
-14 -7 -22 -7 -27 2 -4 6 -3 8 4 4 6 -3 13 -2 16 2 3 5 -10 16 -29 25 -25 12
-35 13 -39 4 -3 -8 -5 -7 -5 3 -1 14 -68 56 -101 62 -8 2 -17 6 -20 9 -3 4
-44 25 -91 47 -48 22 -90 45 -94 52 -6 9 -3 9 13 1 19 -10 20 -7 22 102 1 61
4 153 6 202 2 50 4 102 4 117 0 21 4 26 15 22 17 -7 21 -64 5 -64 -5 0 -10 -5
-10 -11 0 -5 5 -7 10 -4 6 4 10 -7 10 -25 0 -18 4 -29 10 -25 6 3 10 1 10 -4
0 -6 -4 -11 -10 -11 -5 0 -7 -6 -4 -14 3 -8 1 -17 -5 -20 -10 -7 -6 -85 7
-116 15 -39 19 -113 7 -145 -5 -16 -5 -17 4 -5 9 12 11 11 11 -8 0 -13 -4 -20
-10 -17 -5 3 -10 1 -10 -4 0 -6 7 -11 15 -11 13 0 15 47 15 363 0 277 -3 366
-12 376 -10 11 -10 13 0 7 8 -5 12 1 12 21 0 22 -2 25 -10 13 -9 -13 -10 -13
-11 0 -1 8 -7 -34 -14 -95 -7 -60 -11 -120 -8 -132 3 -13 0 -23 -6 -23 -6 0
-8 -7 -4 -16 4 -11 2 -15 -7 -12 -20 6 -21 38 -2 38 15 0 15 2 2 10 -13 8 -15
40 -14 197 1 103 3 516 3 917 1 555 5 733 14 745 9 12 9 13 0 7 -7 -4 -13 -3
-13 3 0 5 5 11 10 13 6 2 7 15 2 33 -4 17 -5 46 -2 65 3 19 2 43 -3 54 -6 11
-5 21 0 25 6 3 10 26 11 51 0 25 -2 39 -5 33 -2 -7 -9 -13 -14 -13 -12 0 0 53
14 62 7 4 7 11 0 20 -15 19 -17 128 -3 128 8 0 9 10 4 33 -4 17 -6 95 -5 172
1 77 3 394 6 705 2 311 7 719 10 908 l7 342 -24 0 -25 0 -12 -787z m-1996
-2473 c-3 -5 -1 -10 4 -10 6 0 11 -9 11 -20 0 -11 6 -20 13 -20 8 0 7 -4 -3
-10 -13 -9 -13 -11 -1 -19 17 -11 51 7 51 26 0 7 10 13 23 14 21 0 21 1 2 9
-20 9 -12 13 28 13 13 0 15 3 6 13 -16 20 -6 17 17 -3 21 -19 23 -31 11 -49
-4 -7 0 -11 10 -10 9 0 23 -10 30 -24 7 -14 13 -21 13 -16 0 5 6 3 13 -3 8 -6
18 -7 23 -3 4 4 3 0 -4 -9 -11 -14 -7 -20 28 -38 22 -11 53 -22 69 -23 16 -1
27 -6 25 -10 -3 -4 0 -8 5 -8 6 0 11 -5 11 -10 0 -6 -11 -8 -27 -3 -27 6 -26
4 14 -36 73 -75 90 -144 45 -184 -23 -20 -72 -33 -72 -18 0 6 5 11 11 11 17 0
6 33 -12 35 -55 9 -170 -38 -168 -68 0 -8 2 -8 6 1 5 13 23 7 23 -9 0 -6 -4
-8 -8 -5 -5 3 -27 -6 -50 -19 -42 -24 -107 -31 -133 -14 -10 6 -5 10 18 15 29
6 31 9 22 26 -8 15 -8 19 1 13 15 -9 39 24 35 47 -2 10 0 16 5 13 5 -3 11 -1
15 5 3 5 1 10 -5 10 -6 0 -9 8 -6 18 5 16 2 18 -26 14 -18 -3 -36 -11 -41 -18
-4 -7 -14 -11 -23 -7 -8 3 -22 -3 -30 -13 -9 -11 -12 -13 -8 -5 5 10 3 12 -5
7 -7 -5 -10 -15 -6 -23 4 -12 3 -13 -8 -5 -8 7 -18 8 -23 4 -4 -4 -2 1 5 11
12 15 12 17 -5 10 -17 -6 -18 -5 -4 12 14 17 14 18 -10 5 -23 -12 -24 -12 -11
3 7 10 9 17 3 17 -13 0 -24 -29 -16 -42 4 -6 -2 -6 -14 1 -15 8 -21 8 -24 -1
-6 -18 -85 -30 -110 -17 -10 5 -18 5 -20 -1 -2 -6 -12 -4 -25 5 -19 14 -21 19
-11 48 12 36 36 60 51 50 6 -3 7 -1 3 5 -4 7 -1 12 9 12 9 0 13 4 10 10 -3 6
1 7 9 4 9 -3 13 -11 9 -18 -4 -6 5 -3 20 7 14 9 36 17 47 17 20 0 50 21 50 35
0 4 -7 5 -15 1 -22 -8 -18 2 6 15 17 9 20 8 14 -3 -3 -7 0 -5 8 4 11 14 16 15
27 5 10 -10 10 -8 0 12 -6 13 -8 21 -2 17 5 -3 12 1 15 8 3 8 1 17 -6 20 -9 5
-9 7 1 12 6 3 12 10 12 15 0 6 -4 7 -10 4 -5 -3 -10 -1 -10 4 0 6 7 11 15 11
8 0 15 5 15 11 0 5 4 8 8 5 4 -2 8 4 9 14 1 13 -4 18 -18 15 -16 -3 -18 -1 -8
16 8 15 7 24 -2 35 -10 13 -10 17 2 25 19 12 52 11 44 -1z m2165 -4132 c-6
-40 -15 -91 -20 -113 -5 -22 -21 -126 -37 -232 -15 -105 -30 -190 -34 -188 -3
3 -4 -6 -2 -18 2 -12 -3 -71 -11 -132 -13 -98 -13 -112 1 -127 10 -11 13 -24
8 -35 -7 -16 -9 -15 -14 7 l-7 25 -8 -25 c-8 -27 -12 -72 -15 -157 0 -31 -6
-53 -12 -53 -6 0 -8 7 -4 18 5 13 4 14 -6 5 -8 -8 -9 -16 -2 -25 11 -14 12
-92 1 -103 -3 -4 -4 -22 -1 -41 4 -21 1 -40 -8 -51 -12 -15 -12 -16 1 -8 12 6
12 5 3 -5 -6 -7 -9 -20 -6 -29 4 -14 3 -14 -6 -1 -9 13 -11 13 -11 -2 0 -10 5
-18 11 -18 5 0 8 -4 5 -9 -4 -5 -8 -54 -11 -109 -4 -102 -12 -152 -24 -152 -3
0 -7 16 -8 35 -2 23 1 35 10 35 8 0 7 4 -3 10 -12 8 -12 10 -1 10 10 0 12 8 8
30 -4 19 -2 30 4 30 7 0 8 5 2 12 -5 7 -7 36 -6 63 2 28 3 79 3 114 0 53 4 67
22 82 l21 19 -23 0 c-23 0 -23 0 -3 17 12 11 18 26 15 38 -12 52 -13 135 -2
135 10 0 10 3 0 15 -14 17 -4 39 13 28 7 -4 6 1 -2 11 -9 10 -11 20 -5 24 5 4
15 20 22 36 12 27 12 28 -4 15 -15 -12 -16 -12 -10 6 3 12 8 39 10 62 2 23 8
48 12 55 5 7 10 31 11 52 2 22 6 42 10 45 9 7 10 37 2 46 -9 9 14 85 26 85 5
0 3 5 -5 10 -9 6 -11 13 -5 18 6 4 11 30 13 57 3 75 5 85 17 85 5 0 3 5 -5 10
-12 7 -12 10 -1 10 7 0 11 6 8 15 -4 8 -2 17 4 20 5 4 8 9 5 13 -2 4 3 41 10
82 22 117 26 144 27 163 1 9 5 17 9 17 4 0 8 5 8 11 0 5 -5 7 -11 4 -6 -4 -5
2 2 13 20 32 22 20 9 -60z"/>
<path d="M2207 7354 c3 -7 0 -14 -7 -14 -10 0 -10 -3 0 -15 15 -18 -1 -20 -19
-2 -7 6 -11 8 -9 2 1 -5 -6 -21 -16 -35 -10 -14 -16 -17 -13 -8 8 22 -12 35
-24 17 -7 -11 -9 -11 -9 -1 0 7 -8 12 -17 10 -11 -2 -18 3 -17 13 2 25 -26 18
-32 -8 -4 -16 -11 -22 -21 -18 -11 4 -13 1 -9 -10 3 -10 2 -13 -5 -10 -5 4 -7
15 -4 25 5 15 2 17 -17 13 -17 -3 -19 -2 -9 5 11 8 10 11 -5 15 -15 4 -13 5 6
6 19 1 22 3 10 11 -16 10 -44 -6 -35 -20 11 -18 -18 -21 -37 -3 -12 10 -19 13
-15 8 12 -22 -11 -37 -54 -37 -30 1 -39 -2 -29 -8 13 -8 12 -10 -2 -10 -10 0
-18 -7 -18 -16 0 -9 -5 -12 -11 -8 -7 4 -10 1 -7 -7 3 -8 -1 -19 -8 -26 -15
-15 -28 -17 -19 -3 3 6 2 10 -3 10 -6 0 -8 10 -6 23 2 12 1 16 -2 9 -5 -10 -9
-10 -22 0 -14 10 -15 10 -4 -2 20 -23 15 -41 -12 -36 -18 3 -26 -2 -35 -20 -6
-13 -18 -24 -26 -24 -10 0 -13 5 -9 12 5 8 2 9 -9 5 -10 -4 -17 -2 -17 5 0 7
-4 7 -14 -1 -10 -8 -16 -9 -21 -1 -12 20 -35 10 -35 -14 0 -14 -5 -28 -12 -32
-7 -4 -8 -3 -4 4 13 21 -10 12 -34 -13 -17 -18 -21 -31 -17 -54 5 -23 2 -30
-13 -34 -11 -3 -18 -1 -15 3 3 5 -7 7 -22 6 -16 -2 -35 -4 -43 -5 -13 -1 -13
-2 0 -11 12 -8 11 -10 -7 -10 -13 0 -23 -5 -23 -11 0 -5 5 -7 10 -4 18 11 10
-32 -11 -59 -13 -16 -30 -26 -47 -26 l-27 -1 24 -19 c13 -11 18 -20 12 -20 -6
0 -15 -15 -20 -32 -5 -18 -10 -25 -10 -15 -1 17 -3 17 -16 3 -13 -13 -20 -13
-35 -4 -16 10 -22 10 -32 -1 -10 -11 -10 -12 0 -7 6 4 12 2 12 -3 0 -6 -7 -11
-15 -11 -15 0 -20 -27 -17 -92 0 -18 -4 -25 -12 -22 -20 8 -37 -21 -38 -65 0
-22 -4 -38 -9 -36 -8 6 -32 -29 -25 -36 2 -2 7 -26 10 -53 6 -43 5 -48 -8 -37
-9 7 -16 8 -20 2 -4 -5 -2 -12 4 -16 5 -3 8 -16 4 -29 -3 -14 1 -27 10 -35 9
-8 16 -21 16 -30 0 -17 54 -89 77 -104 7 -4 13 -20 13 -35 0 -15 7 -52 15 -82
8 -30 22 -102 30 -160 8 -58 22 -125 30 -150 l14 -45 -6 55 c-3 30 -10 63 -14
72 -5 9 -9 33 -9 52 0 27 4 34 14 30 8 -3 12 -12 9 -20 -4 -10 0 -12 13 -7 11
4 15 3 11 -4 -5 -7 0 -9 14 -6 15 4 17 8 8 14 -9 5 -5 10 14 14 14 4 26 10 25
14 -2 18 3 31 13 31 5 0 8 -4 5 -9 -4 -5 4 -7 16 -3 12 3 17 7 10 10 -13 4
-17 23 -4 20 11 -3 82 67 82 81 0 7 6 9 13 6 6 -4 1 2 -13 14 -24 19 -10 25
18 7 7 -4 16 -5 19 -2 4 3 1 6 -6 6 -7 0 -9 5 -5 11 3 6 0 15 -7 20 -12 7 -11
9 1 9 13 0 13 1 0 10 -12 8 -10 10 10 11 14 1 31 1 38 0 6 -1 12 3 12 8 0 14
-22 26 -45 23 -18 -2 -18 -1 1 7 24 11 41 31 25 31 -5 0 -13 -4 -16 -10 -3 -5
-12 -10 -18 -9 -9 0 -9 2 1 6 6 2 12 9 12 14 0 6 -6 7 -12 3 -10 -6 -10 -4 0
8 11 14 10 18 -5 27 -17 10 -17 11 2 8 11 -1 20 3 20 8 0 6 -6 10 -14 10 -8 0
-16 6 -19 13 -2 8 2 10 14 5 14 -5 16 -3 11 11 -5 12 3 10 28 -10 20 -15 39
-24 42 -20 4 4 1 12 -7 17 -12 8 -10 10 7 6 13 -3 26 0 30 6 3 7 3 9 -1 5 -4
-3 -21 -2 -37 2 -20 6 -29 5 -29 -3 0 -8 -3 -8 -12 1 -9 9 -9 15 0 24 20 20
14 25 -24 21 -23 -2 -33 0 -29 7 3 5 12 10 19 10 8 0 12 10 11 25 -2 14 1 25
6 25 5 0 9 -4 9 -10 0 -16 17 -11 24 7 4 9 2 21 -4 27 -5 5 -10 17 -10 25 0 9
6 7 20 -9 22 -26 24 -23 10 15 -7 17 -7 24 0 20 6 -3 10 2 10 13 0 22 76 76
97 68 7 -3 13 1 13 8 0 8 9 16 20 19 11 3 18 1 14 -4 -3 -5 0 -9 5 -9 6 0 11
5 11 11 0 5 5 7 10 4 6 -4 8 -11 5 -16 -3 -5 2 -6 11 -2 12 4 15 3 10 -5 -7
-11 5 -16 31 -13 6 1 15 -4 19 -10 5 -9 2 -10 -9 -6 -10 3 -17 2 -17 -3 0 -6
3 -10 8 -11 4 0 17 -2 30 -5 12 -2 22 1 22 6 0 6 5 10 10 10 6 0 10 -8 10 -18
0 -9 9 -23 21 -30 19 -12 19 -11 9 8 -6 11 -8 25 -5 30 3 5 -7 16 -22 25 l-28
16 32 -6 c18 -4 34 -2 38 5 4 7 20 9 38 5 24 -5 28 -4 17 4 -11 8 -7 9 18 5
27 -6 32 -3 32 12 0 11 4 15 8 9 12 -17 42 -18 36 0 -3 8 -1 15 6 15 6 0 8 -4
5 -10 -3 -5 -1 -10 5 -10 6 0 9 -4 6 -8 -6 -10 40 -9 50 1 5 4 0 5 -11 2 -15
-4 -14 -3 3 6 17 9 28 9 49 0 23 -11 25 -10 13 3 -7 10 -8 16 -2 16 6 0 14 -5
17 -10 12 -20 24 1 15 25 -6 17 -6 25 1 25 6 0 8 10 4 23 -5 19 -4 20 5 4 8
-12 16 -15 28 -8 9 4 23 6 31 3 8 -3 11 0 7 7 -4 6 -2 11 4 11 6 0 8 6 4 13
-5 9 -4 9 5 1 24 -22 -3 -50 -45 -45 -6 1 -18 -6 -25 -16 -12 -14 -12 -15 0
-9 8 5 17 3 23 -5 8 -11 9 -10 4 3 -3 12 -1 15 9 12 7 -3 22 3 32 13 11 11 26
17 34 14 12 -4 12 -2 0 13 -13 15 -12 16 13 7 17 -7 26 -7 26 0 0 6 9 5 23 -2
12 -7 23 -11 25 -10 1 1 19 -3 39 -8 20 -6 39 -8 42 -6 2 3 10 0 18 -6 7 -6
13 -8 13 -5 0 4 7 0 16 -8 8 -9 24 -16 34 -16 10 0 26 -10 34 -22 9 -12 16
-18 16 -13 0 6 3 6 8 0 8 -11 34 -28 77 -51 29 -15 79 -77 80 -99 1 -5 6 -20
13 -31 6 -12 8 -25 4 -29 -4 -5 -2 -5 4 -2 12 7 29 -19 25 -37 -1 -4 3 -14 9
-21 6 -7 7 -21 3 -30 -4 -13 -3 -16 5 -11 7 4 12 17 12 29 0 21 1 21 13 -3 8
-14 19 -24 25 -23 7 2 12 -2 12 -7 0 -6 -10 -8 -23 -6 -16 3 -24 -1 -24 -10 0
-16 14 -19 19 -4 2 6 12 1 22 -11 15 -18 16 -21 2 -16 -10 4 -16 1 -16 -8 0
-8 6 -14 13 -12 6 1 11 -6 11 -15 -1 -11 4 -14 14 -10 11 4 14 1 9 -11 -4 -10
-2 -17 5 -17 7 0 6 -5 -2 -15 -6 -8 -10 -20 -7 -27 4 -8 6 -7 6 5 1 9 6 17 12
17 5 0 8 -4 4 -9 -3 -5 -1 -13 5 -16 7 -4 7 -11 2 -18 -18 -23 -20 -44 -6 -44
9 0 13 6 9 16 -5 13 -4 14 6 4 20 -20 31 -15 19 7 -7 14 -7 20 0 20 5 0 10 -5
10 -12 0 -6 6 -3 14 7 8 11 11 25 9 32 -3 8 0 13 7 11 7 -2 15 3 17 10 3 8 -1
10 -11 6 -12 -5 -15 -2 -10 10 3 9 10 14 14 11 4 -3 10 2 14 10 10 27 -21 16
-49 -16 -29 -36 -35 -35 -24 1 4 14 7 19 8 12 1 -8 9 -5 24 8 21 20 21 22 5
34 -20 15 -25 31 -5 19 6 -4 15 -8 19 -8 3 0 10 -4 15 -9 5 -5 2 -6 -6 -1 -10
5 -12 4 -7 -4 11 -17 25 -4 19 19 -3 11 -9 17 -14 14 -14 -9 -10 6 6 22 8 9
15 23 14 32 0 13 -3 11 -11 -5 -15 -32 -29 -29 -15 2 10 20 18 24 40 21 22 -3
27 -1 23 10 -3 8 -1 14 4 14 15 0 12 26 -5 40 -8 7 -13 16 -10 20 3 5 0 12 -6
16 -7 4 -9 3 -6 -3 4 -6 -2 -13 -13 -16 -11 -3 -19 -2 -18 2 2 20 -3 31 -14
25 -7 -4 -8 -3 -4 5 4 6 12 9 17 6 5 -4 9 3 9 14 0 12 5 21 10 21 6 0 10 7 10
15 0 8 -4 15 -8 15 -4 0 -8 10 -9 21 -1 12 -4 24 -7 27 -7 6 -50 -47 -52 -63
0 -5 -2 -22 -2 -37 -1 -16 -7 -28 -14 -28 -6 0 -8 3 -5 7 4 3 1 13 -6 21 -10
13 -9 14 2 7 11 -6 13 -4 8 9 -5 11 -3 15 5 10 8 -5 9 -1 4 12 -8 21 -9 24 -7
41 0 7 8 10 16 6 9 -3 22 2 30 13 20 26 18 34 -4 34 -19 0 -21 7 -8 50 2 8 2
12 0 8 -2 -4 -11 -4 -20 -1 -12 5 -14 3 -7 -8 4 -8 9 -20 10 -26 3 -17 -44
-13 -51 4 -3 11 0 11 15 3 23 -12 27 2 5 20 -11 9 -12 17 -5 30 13 25 12 40
-1 18 -12 -22 -31 -24 -23 -3 8 19 -6 41 -16 25 -5 -8 -9 -7 -13 4 -4 9 -1 15
6 13 7 -1 13 5 13 13 1 8 2 20 3 27 0 7 9 10 19 7 16 -5 16 -5 -1 6 -9 6 -21
9 -25 6 -5 -3 -15 4 -22 14 -11 16 -17 17 -29 7 -12 -9 -13 -9 -7 1 4 6 2 12
-3 12 -6 0 -11 9 -11 21 0 18 -4 20 -26 15 -15 -4 -23 -3 -20 3 3 5 -1 12 -10
15 -9 3 -14 13 -11 20 5 12 -17 31 -33 28 -3 0 -7 8 -7 19 -1 11 3 17 9 13 6
-4 5 3 -2 16 -10 18 -14 20 -21 9 -7 -11 -9 -11 -9 -1 0 8 -5 10 -12 6 -8 -5
-7 -1 1 10 13 16 13 18 0 16 -27 -4 -40 0 -33 11 4 7 9 8 13 1 4 -6 12 -4 21
6 13 14 12 15 -3 9 -9 -3 -19 -2 -22 4 -4 5 -12 9 -18 8 -26 -3 -36 2 -31 15
7 19 -11 29 -33 18 -12 -6 -27 -4 -43 4 -14 8 -20 14 -15 14 12 0 -16 20 -29
20 -5 0 -3 -6 3 -14 9 -11 7 -12 -13 -9 -13 3 -33 0 -45 -6 -18 -10 -25 -8
-47 14 -14 14 -30 23 -35 19 -5 -3 -9 -2 -8 3 4 18 -14 43 -33 43 -11 0 -16
-4 -12 -11 4 -8 0 -8 -15 0 -11 7 -21 9 -21 5 0 -4 -9 1 -19 10 -13 12 -21 14
-26 6 -3 -5 -11 -8 -16 -4 -5 3 -7 10 -4 15 4 5 -1 9 -11 9 -13 0 -14 3 -5 14
10 12 8 13 -10 9 -14 -4 -20 -2 -16 4 4 6 0 13 -8 16 -9 4 -12 1 -8 -9z"/>
<path d="M1199 5681 c-22 -17 -22 -19 -7 -52 9 -19 19 -63 22 -99 4 -36 14
-93 22 -128 8 -35 14 -74 14 -88 0 -13 5 -24 11 -24 8 0 10 21 6 68 -2 37 1
105 9 152 24 151 24 153 -5 172 -33 23 -43 22 -72 -1z"/>
<path d="M4965 2486 c0 -24 -5 -54 -12 -67 -6 -13 -26 -67 -43 -119 -18 -52
-39 -107 -47 -122 -7 -16 -12 -28 -11 -28 10 0 149 31 161 36 13 5 15 33 17
175 0 93 -3 169 -7 169 -4 0 -15 -4 -23 -10 -8 -5 -19 -5 -25 0 -7 5 -10 -6
-10 -34z"/>
</g>
</svg>
